<svg width="18" height="18" viewBox="0 0 18 18" fill="none" xmlns="http://www.w3.org/2000/svg">
<g clip-path="url(#clip0)">
<path d="M14.6042 17.4174L9 11.8131L3.39579 17.4174C2.61891 18.1942 1.35944 18.1942 0.582559 17.4174C-0.194186 16.6406 -0.194186 15.3811 0.582559 14.6042L6.18691 9L0.582559 3.39579C-0.194186 2.61891 -0.194186 1.35944 0.582559 0.582559C1.35944 -0.194186 2.61891 -0.194186 3.39579 0.582559L9 6.18691L14.6042 0.582559C15.3811 -0.194186 16.6406 -0.194186 17.4174 0.582559C18.1942 1.35944 18.1942 2.61891 17.4174 3.39579L11.8131 9L17.4174 14.6042C18.1942 15.3811 18.1942 16.6406 17.4174 17.4174C16.6406 18.1942 15.3811 18.1942 14.6042 17.4174V17.4174Z" fill="#F37748"/>
</g>
<defs>
<clipPath id="clip0">
<rect width="18" height="18" fill="white"/>
</clipPath>
</defs>
</svg>
