<svg width="18" height="18" viewBox="0 0 18 18" xmlns="http://www.w3.org/2000/svg">
  <path
    d="M18 10.6875C18 10.2368 17.8207 9.81677 17.5117 9.50701C17.862 9.12377 18.0405 8.61 17.9917 8.07527C17.904 7.12201 17.0452 6.37501 16.0357 6.37501H11.403C11.6325 5.67824 12 4.40102 12 3.37502C12 1.74827 10.6178 0.375031 9.74999 0.375031C8.97149 0.375031 8.41423 0.813781 8.39099 0.831781C8.30173 0.903042 8.24998 1.01104 8.24998 1.12502V3.66826L6.08924 8.34752L5.99998 8.39326V8.25C5.99998 8.043 5.83196 7.87498 5.62496 7.87498H1.87499C0.840762 7.87502 0 8.71578 0 9.75001V15.75C0 16.7843 0.840762 17.625 1.87499 17.625H4.12499C4.93573 17.625 5.62873 17.1075 5.88973 16.3853C6.51375 16.7063 7.35374 16.875 7.875 16.875H14.7593C15.576 16.875 16.2908 16.3245 16.4588 15.5655C16.545 15.174 16.4948 14.7803 16.3238 14.4383C16.8773 14.16 17.25 13.5878 17.25 12.9375C17.25 12.672 17.1893 12.4178 17.0745 12.1883C17.628 11.9093 18 11.3378 18 10.6875ZM16.4182 11.613C16.2735 11.6303 16.1512 11.7285 16.1048 11.8673C16.059 12.006 16.0973 12.1582 16.2038 12.2588C16.3943 12.438 16.5 12.6795 16.5 12.9375C16.5 13.4108 16.1423 13.8083 15.669 13.863C15.5243 13.8803 15.402 13.9785 15.3555 14.1173C15.3098 14.256 15.3481 14.4082 15.4545 14.5088C15.7013 14.7412 15.8003 15.0675 15.7261 15.4035C15.6338 15.822 15.2273 16.125 14.7593 16.125H7.875C7.26599 16.125 6.24449 15.8393 5.8905 15.4845C5.78324 15.378 5.62124 15.3465 5.48174 15.4035C5.3415 15.4613 5.24999 15.5985 5.24999 15.75C5.24999 16.3703 4.74525 16.875 4.12499 16.875H1.87499C1.25473 16.875 0.749988 16.3703 0.749988 15.75V9.75001C0.749988 9.12975 1.25473 8.62501 1.87499 8.62501H5.24999V9.00002C5.24999 9.12978 5.31749 9.25051 5.42848 9.31952C5.53799 9.38551 5.67598 9.39226 5.79298 9.33527L6.54296 8.96026C6.61873 8.92275 6.67948 8.85975 6.71548 8.78251L8.96548 3.9075C8.98798 3.858 8.99996 3.804 8.99996 3.75V1.32826C9.15599 1.24202 9.42676 1.12502 9.74999 1.12502C10.161 1.12502 11.25 2.14652 11.25 3.37502C11.25 4.69503 10.5315 6.59776 10.5248 6.61653C10.4813 6.73128 10.4963 6.86104 10.566 6.96303C10.6365 7.06428 10.752 7.12503 10.875 7.12503H16.0357C16.6612 7.12503 17.1922 7.57278 17.2447 8.14428C17.2845 8.57178 17.079 8.97829 16.7108 9.20554C16.596 9.27603 16.5278 9.40354 16.533 9.53928C16.5382 9.67502 16.6163 9.79652 16.7362 9.85878C17.0535 10.02 17.25 10.338 17.25 10.6875C17.25 11.1608 16.8923 11.5583 16.4182 11.613Z"
    fill="black"/>
  <path
    d="M5.62501 8.62497C5.41801 8.62497 5.25 8.79298 5.25 8.99998V15.75C5.25 15.957 5.41801 16.125 5.62501 16.125C5.83201 16.125 6.00002 15.957 6.00002 15.75V8.99998C6.00002 8.79298 5.83201 8.62497 5.62501 8.62497Z"
    fill="black"/>
</svg>
